<?xml version="1.0" encoding="UTF-8" standalone="no"?>
<svg
   xmlns:dc="http://purl.org/dc/elements/1.1/"
   xmlns:cc="http://creativecommons.org/ns#"
   xmlns:rdf="http://www.w3.org/1999/02/22-rdf-syntax-ns#"
   xmlns:svg="http://www.w3.org/2000/svg"
   xmlns="http://www.w3.org/2000/svg"
   xmlns:sodipodi="http://sodipodi.sourceforge.net/DTD/sodipodi-0.dtd"
   xmlns:inkscape="http://www.inkscape.org/namespaces/inkscape"
   id="i-archive"
   viewBox="0 0 32 32"
   fill="none"
   stroke="#000"
   stroke-linecap="round"
   stroke-linejoin="round"
   stroke-width="2"
   version="1.1"
   sodipodi:docname="20055718511574330910.svg"
   inkscape:version="0.92.5 (2060ec1f9f, 2020-04-08)">
  <metadata
     id="metadata9">
    <rdf:RDF>
      <cc:Work
         rdf:about="">
        <dc:format>image/svg+xml</dc:format>
        <dc:type
           rdf:resource="http://purl.org/dc/dcmitype/StillImage" />
      </cc:Work>
    </rdf:RDF>
  </metadata>
  <defs
     id="defs7" />
  <sodipodi:namedview
     pagecolor="#ffffff"
     bordercolor="#666666"
     borderopacity="1"
     objecttolerance="10"
     gridtolerance="10"
     guidetolerance="10"
     inkscape:pageopacity="0"
     inkscape:pageshadow="2"
     inkscape:window-width="1920"
     inkscape:window-height="1013"
     id="namedview5"
     showgrid="false"
     inkscape:zoom="7.375"
     inkscape:cx="16"
     inkscape:cy="16"
     inkscape:window-x="0"
     inkscape:window-y="360"
     inkscape:window-maximized="1"
     inkscape:current-layer="i-archive" />
  <path
     d="M4 10 L4 28 28 28 28 10 M2 4 L2 10 30 10 30 4 Z M12 15 L20 15"
     id="path2" />
  <path
     style="fill:#ffffff;stroke-width:0.27118644"
     d="M 3.3954075,28.71606 C 3.1407896,28.529923 3.1299917,28.236877 3.0644068,19.733009 L 2.9966102,10.942373 2.4542373,10.906231 C 1.5646144,10.846951 1.3561733,10.763013 1.1893477,10.396871 1.0211044,10.027617 0.95947512,4.3061143 1.117391,3.7166037 1.3128391,2.9869828 0.82434522,3.0101695 16.000446,3.0101695 c 10.390498,0 14.124243,0.041003 14.380862,0.1579268 0.555546,0.2531233 0.638342,0.8323892 0.590779,4.1332362 -0.05109,3.5453625 -0.06111,3.5732435 -1.284628,3.5732435 h -0.724747 v 8.65968 c 0,8.555451 -0.0034,8.663981 -0.281028,9.016949 l -0.281028,0.35727 H 16.029634 c -10.4688046,0 -12.4114939,-0.02959 -12.6342265,-0.192415 z M 27.031584,18.976271 26.99661,10.942373 15.979661,10.907677 4.9627119,10.872982 v 8.068594 8.068593 H 16.014635 27.066557 Z M 29.098305,7.0101695 V 4.9084746 H 16.013559 2.9288136 V 7.0101695 9.1118644 H 16.013559 29.098305 Z"
     id="path11"
     inkscape:connector-curvature="0" />
  <path
     style="fill:#ffffff;stroke-width:0.27118644"
     d="m 11.335593,15.620339 c -0.325085,-0.325085 -0.348015,-0.779123 -0.06011,-1.190169 0.210859,-0.301043 0.215722,-0.301356 4.677966,-0.301356 4.286097,0 4.477864,0.01098 4.738074,0.271186 0.346472,0.346472 0.343535,0.685012 -0.0098,1.134256 l -0.281028,0.357269 h -4.396938 c -4.216147,0 -4.408089,-0.01115 -4.668125,-0.271186 z"
     id="path13"
     inkscape:connector-curvature="0" />
</svg>
