<?xml version="1.0" encoding="UTF-8" standalone="no"?>
<svg
   xmlns:dc="http://purl.org/dc/elements/1.1/"
   xmlns:cc="http://creativecommons.org/ns#"
   xmlns:rdf="http://www.w3.org/1999/02/22-rdf-syntax-ns#"
   xmlns:svg="http://www.w3.org/2000/svg"
   xmlns="http://www.w3.org/2000/svg"
   xmlns:sodipodi="http://sodipodi.sourceforge.net/DTD/sodipodi-0.dtd"
   xmlns:inkscape="http://www.inkscape.org/namespaces/inkscape"
   data-name="Layer 1"
   viewBox="0 0 24 24"
   version="1.1"
   id="svg4"
   sodipodi:docname="bug.svg"
   inkscape:version="0.92.5 (2060ec1f9f, 2020-04-08)">
  <metadata
     id="metadata10">
    <rdf:RDF>
      <cc:Work
         rdf:about="">
        <dc:format>image/svg+xml</dc:format>
        <dc:type
           rdf:resource="http://purl.org/dc/dcmitype/StillImage" />
      </cc:Work>
    </rdf:RDF>
  </metadata>
  <defs
     id="defs8" />
  <sodipodi:namedview
     pagecolor="#ffffff"
     bordercolor="#666666"
     borderopacity="1"
     objecttolerance="10"
     gridtolerance="10"
     guidetolerance="10"
     inkscape:pageopacity="0"
     inkscape:pageshadow="2"
     inkscape:window-width="1920"
     inkscape:window-height="1013"
     id="namedview6"
     showgrid="false"
     inkscape:zoom="9.8333333"
     inkscape:cx="12"
     inkscape:cy="12"
     inkscape:window-x="0"
     inkscape:window-y="360"
     inkscape:window-maximized="1"
     inkscape:current-layer="svg4" />
  <path
     d="M19,14h2a1,1,0,0,0,0-2H19V11a5.15,5.15,0,0,0-.21-1.36A5,5,0,0,0,22,5a1,1,0,0,0-2,0,3,3,0,0,1-2.14,2.87A5,5,0,0,0,16,6.4,2.58,2.58,0,0,0,16,6,4,4,0,0,0,8,6a2.58,2.58,0,0,0,0,.4,5,5,0,0,0-1.9,1.47A3,3,0,0,1,4,5,1,1,0,0,0,2,5,5,5,0,0,0,5.21,9.64,5.15,5.15,0,0,0,5,11v1H3a1,1,0,0,0,0,2H5v1a7,7,0,0,0,.14,1.38A5,5,0,0,0,2,21a1,1,0,0,0,2,0,3,3,0,0,1,1.81-2.74,7,7,0,0,0,12.38,0A3,3,0,0,1,20,21a1,1,0,0,0,2,0,5,5,0,0,0-3.14-4.62A7,7,0,0,0,19,15Zm-8,5.9A5,5,0,0,1,7,15V11a3,3,0,0,1,3-3h1ZM10,6a2,2,0,0,1,4,0Zm7,9a5,5,0,0,1-4,4.9V8h1a3,3,0,0,1,3,3Z"
     id="path2" />
  <path
     style="fill:#ffffff;stroke-width:0.10169491"
     d="M 2.5805229,21.827919 C 2.2018885,21.622441 2.0949153,21.382874 2.0949153,20.740397 c 0,-1.053566 0.5288262,-2.297345 1.3260589,-3.118839 0.4252567,-0.438198 1.4227326,-1.126643 1.6323737,-1.126643 0.086008,0 0.1022958,-0.153599 0.056616,-0.533898 -0.035271,-0.293644 -0.064527,-0.865678 -0.065013,-1.271186 L 5.044067,13.952542 H 3.882378 c -1.1014034,0 -1.1779261,-0.01366 -1.4745762,-0.263277 C 2.0017405,13.347587 1.9730969,12.783607 2.3401147,12.356518 2.5796832,12.077739 2.613243,12.070414 3.8014903,12.037547 l 1.2161761,-0.03364 0.056823,-0.98331 C 5.1057418,10.479778 5.1600647,9.9447138 5.1952068,9.8315674 5.2472833,9.6638974 5.178083,9.5864213 4.8210762,9.4126937 3.2425618,8.6445535 2.0949153,6.8675118 2.0949153,5.1914451 c 0,-0.7646741 0.2752411,-1.1033095 0.8967642,-1.1033095 0.591129,0 0.8872749,0.3410906 0.9681762,1.1151118 0.1161718,1.1114721 0.8072001,2.1373771 1.7127928,2.5428231 l 0.4071856,0.1823023 0.437182,-0.437182 C 6.7574663,7.2507407 7.1954036,6.9162506 7.4902101,6.7478797 l 0.536012,-0.3061292 0.043435,-0.6379619 c 0.1424557,-2.0923459 1.884061,-3.7495513 3.9405119,-3.7495513 2.061833,0 3.915255,1.8030999 3.915255,3.8089519 0,0.5488542 0.0078,0.5637728 0.398841,0.7632693 0.219362,0.1119104 0.666303,0.4510964 0.993201,0.7537467 l 0.594361,0.5502732 0.405103,-0.2032517 c 0.971861,-0.4876097 1.585383,-1.3982586 1.724397,-2.5595157 0.09094,-0.7596831 0.372543,-1.0795754 0.950352,-1.0795754 0.297883,0 0.467846,0.070104 0.678017,0.279661 0.268451,0.2676657 0.2782,0.3123755 0.227303,1.0423729 -0.05826,0.835629 -0.326856,1.62205 -0.777897,2.2776167 -0.448318,0.6516071 -1.205091,1.3387653 -1.813287,1.6464849 -0.495342,0.2506199 -0.544341,0.3047298 -0.490417,0.5415756 0.03295,0.1447253 0.08935,0.6864413 0.125333,1.2038143 l 0.06542,0.940678 h 1.057905 c 1.441373,0 1.861365,0.229718 1.861365,1.018086 0,0.217641 -0.09483,0.414421 -0.297263,0.616855 -0.294316,0.294317 -0.308926,0.297262 -1.474576,0.297262 h -1.177314 l -0.0061,0.737289 c -0.0033,0.405508 -0.04225,0.957358 -0.08648,1.226334 l -0.08042,0.489046 0.5132,0.260058 c 1.471623,0.745728 2.60408,2.561736 2.607711,4.181726 0.001,0.434674 -0.04613,0.585858 -0.244273,0.784001 -0.33669,0.33669 -0.684741,0.405517 -1.062586,0.210126 -0.392412,-0.202924 -0.488392,-0.382693 -0.611082,-1.144525 -0.173467,-1.077132 -0.615541,-1.793348 -1.409975,-2.284334 -0.359507,-0.222188 -0.3681,-0.222688 -0.503715,-0.02932 -0.755571,1.077321 -1.173176,1.553828 -1.773215,2.023326 -1.311954,1.026534 -2.673336,1.500616 -4.309201,1.500616 -2.5343792,0 -4.5454244,-1.153292 -6.0589759,-3.474693 l -0.1606312,-0.24643 -0.3478043,0.215664 c -0.8342999,0.517329 -1.341994,1.332144 -1.4733797,2.364676 -0.089252,0.701412 -0.1785349,0.874467 -0.5503562,1.066744 -0.3636695,0.18806 -0.4841463,0.187352 -0.8384618,-0.0049 z M 11.044068,13.940412 V 7.9282821 L 10.10339,7.9726354 C 8.9689718,8.0261234 8.3428768,8.3006499 7.7065036,9.0236081 7.0018988,9.8240815 6.9597025,10.079173 6.9974308,13.310214 c 0.037441,3.206442 0.058797,3.318384 0.8656361,4.537383 0.4477159,0.676424 1.1246098,1.278166 1.858967,1.652574 0.3254351,0.165921 1.0612961,0.429115 1.2457631,0.445568 0.04195,0.0037 0.07627,-2.698656 0.07627,-6.005327 z m 3.133435,5.597364 c 0.807961,-0.367943 1.819216,-1.322769 2.242969,-2.117809 0.560751,-1.052078 0.639465,-1.654991 0.60421,-4.62795 -0.02997,-2.527042 -0.04236,-2.673425 -0.2609,-3.0824098 -0.617171,-1.1549893 -1.4752,-1.6713904 -2.889459,-1.739007 l -0.898052,-0.042936 v 6.0143758 6.014377 l 0.279661,-0.06316 c 0.153814,-0.03474 0.568521,-0.194705 0.921571,-0.355481 z M 13.99322,5.6843167 c 0,-0.5182934 -0.498911,-1.2190933 -1.061925,-1.4916441 C 12.555455,4.0107315 12.332369,3.9717909 11.861161,4.0058752 10.869994,4.0775697 10.198888,4.6785151 9.9806016,5.6898305 L 9.9092633,6.020339 h 2.0419787 2.041978 z"
     id="path12"
     inkscape:connector-curvature="0" />
</svg>
