<?xml version="1.0" encoding="UTF-8" standalone="no"?>
<svg
   xmlns:dc="http://purl.org/dc/elements/1.1/"
   xmlns:cc="http://creativecommons.org/ns#"
   xmlns:rdf="http://www.w3.org/1999/02/22-rdf-syntax-ns#"
   xmlns:svg="http://www.w3.org/2000/svg"
   xmlns="http://www.w3.org/2000/svg"
   xmlns:sodipodi="http://sodipodi.sourceforge.net/DTD/sodipodi-0.dtd"
   xmlns:inkscape="http://www.inkscape.org/namespaces/inkscape"
   viewBox="0 0 100 100"
   version="1.1"
   id="svg16"
   sodipodi:docname="contacts.svg"
   inkscape:version="0.92.5 (2060ec1f9f, 2020-04-08)">
  <metadata
     id="metadata20">
    <rdf:RDF>
      <cc:Work
         rdf:about="">
        <dc:format>image/svg+xml</dc:format>
        <dc:type
           rdf:resource="http://purl.org/dc/dcmitype/StillImage" />
      </cc:Work>
    </rdf:RDF>
  </metadata>
  <sodipodi:namedview
     pagecolor="#ffffff"
     bordercolor="#666666"
     borderopacity="1"
     objecttolerance="10"
     gridtolerance="10"
     guidetolerance="10"
     inkscape:pageopacity="0"
     inkscape:pageshadow="2"
     inkscape:window-width="1920"
     inkscape:window-height="1013"
     id="namedview18"
     showgrid="false"
     inkscape:zoom="2.36"
     inkscape:cx="50"
     inkscape:cy="50"
     inkscape:window-x="0"
     inkscape:window-y="360"
     inkscape:window-maximized="1"
     inkscape:current-layer="svg16" />
  <!-- Generator: Sketch 50.2 (55047) - http://www.bohemiancoding.com/sketch -->
  <title
     id="title2">34. Contacts book</title>
  <desc
     id="desc4">Created with Sketch.</desc>
  <defs
     id="defs6" />
  <g
     id="34.-Contacts-book"
     stroke="none"
     stroke-width="1"
     fill="none"
     fill-rule="evenodd"
     stroke-linecap="round"
     stroke-linejoin="round">
    <path
       d="M83.8,21.2 L83.8,88.4 L11.8,88.4 C10.2296149,88.4 8.83536654,89.1541312 7.95964846,90.32 L7,90.32 L7,6.79547364 C7,4.13944131 9.15090642,2 11.804184,2 L83.32,2 L93.4,2 L93.4,21.2 L83.8,21.2 L83.8,21.2 Z"
       id="Layer-1"
       stroke="#222F3E"
       stroke-width="4" />
    <path
       d="M64.1953931,65.36 C63.6642276,56.5065918 52.1930019,57.7950337 50.4854753,53.2045941 C50.3431815,51.6335138 50.0114569,49.4208797 50.0114569,49.4208797 L52.6814575,44.5311605 C52.6814575,44.5311605 54.0408731,43.7459497 54.2991462,41.5910746 C54.4385162,40.4342058 53.8560959,39.5655606 53.5188789,39.3608914 C54.4291698,36.6231961 56.2561846,27.1188623 45.6776973,26.96 C37.0484507,27.1188623 35.8871079,32.0805128 37.7788368,39.3608914 C37.4425944,39.5655606 36.9178515,40.4342058 37.0562469,41.5910746 C37.3154946,43.7459497 38.8380174,44.5311605 38.8380174,44.5311605 L41.2448843,49.2033302 C41.2448843,49.2033302 41.0628916,51.6335138 40.9205978,53.2045941 C39.2130712,57.7950337 27.6921401,56.5065918 27.16,65.36 L64.1953931,65.36 Z"
       id="Layer-2"
       stroke="#222F3E"
       stroke-width="4" />
    <rect
       id="Layer-3"
       stroke="#222F3E"
       stroke-width="4"
       x="83.8"
       y="21.2"
       width="9.6"
       height="19.2" />
    <rect
       id="Layer-4"
       stroke="#222F3E"
       stroke-width="4"
       x="83.8"
       y="40.4"
       width="9.6"
       height="19.2" />
    <rect
       id="Layer-5"
       stroke="#222F3E"
       stroke-width="4"
       x="84"
       y="60"
       width="9.6"
       height="19.2" />
    <rect
       id="Layer-6"
       stroke="#222F3E"
       stroke-width="4"
       x="84"
       y="79"
       width="9.6"
       height="19.2" />
    <path
       d="M11.8,88.4 C9.1490332,88.4 7,90.5490332 7,93.2 C7,95.8509668 9.1490332,98 11.8,98 L83.8,98 L83.8,88.4 L11.8,88.4 L11.8,88.4 Z"
       id="Layer-7"
       stroke="#222F3E"
       stroke-width="4" />
  </g>
  <path
     style="fill:#000000;stroke-width:0.42372882"
     d="M 46.421867,99.665614 C 11.591475,99.462369 9.2555593,99.402475 8.1601129,98.684606 7.5184428,98.264102 6.6218999,97.310712 6.1677954,96.565962 5.3630805,95.246191 5.3421108,94.066822 5.340567,50.041475 L 5.3389831,4.8710873 6.2923729,3.4702673 C 6.8167373,2.6998162 7.784044,1.6705588 8.4419433,1.1830286 9.6342025,0.29951597 9.7755805,0.29623653 51.569157,0.18262411 c 26.476686,-0.0719747 42.213792,0.0373411 42.69822,0.29659805 0.730831,0.39113059 0.781564,2.71209274 1.070704,48.98618484 0.274228,43.886902 0.238894,48.674237 -0.36603,49.59747 -0.655987,1.001163 -0.778831,1.019813 -6.062326,0.920534 -2.966026,-0.05573 -22.085564,-0.198742 -42.487858,-0.317797 z M 82.033898,93.305085 V 90.338983 H 46.259568 10.485237 l -0.8782116,1.116466 c -1.1532905,1.46617 -1.1087566,2.505068 0.1618496,3.775674 l 1.040062,1.040063 h 35.61248 35.612481 z m 9.745763,-4.661017 v -7.627119 h -2.966102 -2.966101 v 7.627119 7.627118 h 2.966101 2.966102 z m -45.444915,-2.11286 35.699152,-0.0058 V 53.277619 c 0,-38.536547 -0.735885,-34.125077 5.692483,-34.125077 h 4.05328 V 11.525424 3.8983051 H 51.132449 10.485237 L 9.6070254,5.0147708 C 8.7324894,6.1265631 8.7288136,6.3005712 8.7288136,46.589614 V 87.047992 L 9.6822034,86.792496 C 10.206568,86.65197 26.700212,86.53439 46.334746,86.531208 Z M 91.779661,69.576271 v -7.627118 h -2.966102 -2.966101 v 7.627118 7.627119 h 2.966101 2.966102 z m 0,-19.491525 v -7.627119 h -2.966102 -2.966101 v 7.627119 7.627118 h 2.966101 2.966102 z M 91.567797,30.805085 v -7.627119 l -2.86017,-0.125292 -2.860169,-0.125293 v 7.877704 7.877703 l 2.860169,-0.125292 2.86017,-0.125293 z"
     id="path26"
     inkscape:connector-curvature="0" />
  <path
     style="fill:#ffffff;stroke-width:0.42372882"
     d="m 25.633352,66.045872 c -0.923453,-2.026757 0.969355,-5.990841 3.88915,-8.144997 0.754635,-0.556752 2.820151,-1.607877 4.590035,-2.335833 4.889995,-2.011264 5.124751,-2.215001 5.124751,-4.447623 0,-1.98146 -1.121242,-4.68963 -2.597786,-6.274514 -1.043656,-1.120234 -1.375946,-2.438865 -1.114724,-4.423583 0.113173,-0.859864 0.06249,-2.612119 -0.112639,-3.893898 -0.67623,-4.949508 0.986793,-8.655616 4.626646,-10.310652 2.794942,-1.270856 8.449339,-1.257046 10.891164,0.0266 3.834652,2.015841 5.812029,6.257722 4.972138,10.66626 -0.214446,1.125613 -0.211979,2.575231 0.0058,3.433005 0.429148,1.689965 -0.04346,2.971693 -2.499213,6.778008 -1.228849,1.904662 -1.467821,2.623895 -1.307808,3.93611 0.265628,2.178329 0.629575,2.519712 4.41022,4.136774 4.361422,1.865474 6.38539,3.236549 7.84639,5.315299 1.38766,1.974399 1.963665,4.912222 1.15432,5.887424 -0.459261,0.553376 -3.153969,0.639647 -19.979586,0.639647 H 26.083526 Z m 36.061563,-3.006548 c 0,-1.032993 -2.79484,-2.972088 -6.420031,-4.454299 -1.909651,-0.780787 -4.133493,-2.025743 -4.941873,-2.766567 -1.24765,-1.143387 -1.524291,-1.745544 -1.830464,-3.984334 -0.322494,-2.358126 -0.253056,-2.848346 0.655797,-4.62982 0.559065,-1.095842 1.527125,-2.739646 2.151244,-3.652897 0.827285,-1.210538 1.061315,-1.956829 0.863704,-2.754237 -0.149081,-0.601579 -0.221007,-1.570475 -0.159834,-2.153102 0.06117,-0.582627 0.119398,-2.326707 0.129391,-3.875732 0.02039,-3.16053 -0.614781,-4.266325 -3.040256,-5.292919 -1.931132,-0.817361 -5.952973,-0.731595 -7.740766,0.165072 -2.16407,1.085388 -2.646702,2.300471 -2.313942,5.825613 0.355778,3.768982 0.354568,4.456415 -0.0098,5.564112 -0.206566,0.627978 -0.04311,1.144313 0.536579,1.694915 0.458503,0.435501 1.447019,2.015374 2.196703,3.51083 1.267932,2.529248 1.342275,2.913105 1.065231,5.500104 -0.256292,2.393216 -0.488493,2.959552 -1.664896,4.060651 -0.751887,0.703756 -3.11621,2.014115 -5.254052,2.911909 -3.691467,1.550244 -6.426128,3.452406 -6.426128,4.469856 0,0.330131 4.684602,0.465589 16.101695,0.465589 13.665076,0 16.101695,-0.09151 16.101695,-0.604744 z"
     id="path28"
     inkscape:connector-curvature="0" />
  <path
     style="fill:#ffffff;stroke-width:0.42372882"
     d="M 51.142606,99.653903 C 30.074004,99.469534 11.825244,99.192394 10.589806,99.038038 8.7671186,98.810305 8.1132717,98.49511 7.1223206,97.366479 L 5.9010875,95.975572 5.6200353,88.21647 C 5.4654565,83.948962 5.3389831,63.440703 5.3389831,42.642559 V 4.8277517 L 7.1979184,2.7740454 9.0568538,0.72033898 35.058088,0.41633852 C 49.358767,0.24913826 68.528076,0.22778174 77.656551,0.36887953 94.063525,0.6224803 94.257097,0.63567928 94.543716,1.5203376 c 0.15947,0.4922042 0.387915,22.5425894 0.507661,49.0008534 0.245615,54.270209 0.597047,49.092601 -3.348381,49.331474 -1.239615,0.07505 -19.491788,-0.01441 -40.56039,-0.198762 z m 30.891292,-6.348818 v -2.966102 h -35.92559 -35.92559 l -0.7269519,1.230631 c -0.9430668,1.596488 -0.9164328,2.227755 0.1512593,3.585106 l 0.8782116,1.116466 h 35.774331 35.77433 z m 9.745763,-4.661017 v -7.627119 h -2.966102 -2.966101 v 7.627119 7.627118 h 2.966101 2.966102 z M 53.297945,86.526623 81.97725,86.525352 82.111504,54.21603 c 0.1155,-27.794982 0.223716,-32.486936 0.7745,-33.580509 0.63811,-1.26695 0.653996,-1.27159 4.766949,-1.392463 l 4.126708,-0.121204 V 11.51008 3.8983051 H 50.93811 10.096561 L 9.4126869,5.3394614 C 8.7982924,6.6342021 8.7288136,10.859824 8.7288136,46.931881 V 87.083144 L 16.673729,86.805483 C 21.043432,86.652767 37.52433,86.52728 53.297945,86.526623 Z M 91.779661,69.576271 v -7.627118 h -2.966102 -2.966101 v 7.627118 7.627119 h 2.966101 2.966102 z m 0,-19.491525 v -7.627119 h -2.966102 -2.966101 v 7.627119 7.627118 h 2.966101 2.966102 z m 0,-19.279661 v -7.838983 h -2.966102 -2.966101 v 7.838983 7.838983 h 2.966101 2.966102 z"
     id="path34"
     inkscape:connector-curvature="0" />
</svg>
