<?xml version="1.0" encoding="UTF-8" standalone="no"?>
<svg
   xmlns:dc="http://purl.org/dc/elements/1.1/"
   xmlns:cc="http://creativecommons.org/ns#"
   xmlns:rdf="http://www.w3.org/1999/02/22-rdf-syntax-ns#"
   xmlns:svg="http://www.w3.org/2000/svg"
   xmlns="http://www.w3.org/2000/svg"
   xmlns:sodipodi="http://sodipodi.sourceforge.net/DTD/sodipodi-0.dtd"
   xmlns:inkscape="http://www.inkscape.org/namespaces/inkscape"
   viewBox="0 0 24 24"
   version="1.1"
   id="svg20"
   sodipodi:docname="drafts.svg"
   inkscape:version="0.92.5 (2060ec1f9f, 2020-04-08)">
  <metadata
     id="metadata24">
    <rdf:RDF>
      <cc:Work
         rdf:about="">
        <dc:format>image/svg+xml</dc:format>
        <dc:type
           rdf:resource="http://purl.org/dc/dcmitype/StillImage" />
      </cc:Work>
    </rdf:RDF>
  </metadata>
  <sodipodi:namedview
     pagecolor="#ffffff"
     bordercolor="#666666"
     borderopacity="1"
     objecttolerance="10"
     gridtolerance="10"
     guidetolerance="10"
     inkscape:pageopacity="0"
     inkscape:pageshadow="2"
     inkscape:window-width="1920"
     inkscape:window-height="1013"
     id="namedview22"
     showgrid="false"
     inkscape:zoom="9.8333333"
     inkscape:cx="12"
     inkscape:cy="12"
     inkscape:window-x="0"
     inkscape:window-y="360"
     inkscape:window-maximized="1"
     inkscape:current-layer="svg20" />
  <defs
     id="defs4">
    <style
       id="style2">.a{fill:none;stroke:#000;stroke-linecap:round;stroke-linejoin:round;}</style>
  </defs>
  <title
     id="title6">pencil-2</title>
  <polygon
     class="a"
     points="7 21.5 0.5 23.5 2.5 17 15.33 4.169 19.83 8.669 7 21.5"
     id="polygon8" />
  <path
     class="a"
     d="M15.33,4.169l3.086-3.086a2.007,2.007,0,0,1,2.828,0l1.672,1.672a2,2,0,0,1,0,2.828L19.83,8.669"
     id="path10" />
  <line
     class="a"
     x1="17.58"
     y1="6.419"
     x2="6"
     y2="18"
     id="line12" />
  <polyline
     class="a"
     points="2.5 17 3.5 18 6 18 6 20.5 7 21.5"
     id="polyline14" />
  <line
     class="a"
     x1="1.5"
     y1="20.5"
     x2="3.5"
     y2="22.5"
     id="line16" />
  <line
     class="a"
     x1="16.83"
     y1="2.669"
     x2="21.33"
     y2="7.169"
     id="line18" />
  <path
     style="fill:#ffffff;stroke-width:0.10169491"
     d="m 0.18305085,23.79661 c -0.0671186,-0.06712 -0.1220339,-0.187308 -0.1220339,-0.267087 0,-0.07978 0.45884161,-1.638 1.01964805,-3.462712 l 1.019648,-3.317658 8.107471,-8.1122617 c 5.891565,-5.8950471 8.232547,-8.17373334 8.565097,-8.33717293 0.630543,-0.30989509 1.515787,-0.30298307 2.135594,0.0166748 0.251694,0.12980881 0.965068,0.74553743 1.585275,1.36828603 0.948254,0.9521402 1.156531,1.2193221 1.309201,1.6794673 0.211238,0.6366754 0.166804,1.328459 -0.121415,1.890256 -0.1029,0.2005733 -3.846477,4.0272896 -8.31906,8.5038145 l -8.1319675,8.139135 -3.278253,1.010646 c -1.803039,0.555855 -3.36125942,1.010646 -3.46271182,1.010646 -0.10145241,0 -0.23937419,-0.05492 -0.30649283,-0.122034 z M 2.1228635,22.533612 2.7101338,22.354486 2.2283813,21.865378 c -0.2649639,-0.269009 -0.5128337,-0.489107 -0.550822,-0.489107 -0.037988,0 -0.09641,0.102966 -0.1298273,0.228814 -0.033417,0.125847 -0.1285092,0.448827 -0.2113167,0.717734 -0.1707545,0.554503 -0.2610556,0.530299 0.7864482,0.210793 z m 2.829743,-0.866809 C 5.5342662,21.491002 6.0273045,21.332766 6.0482473,21.315166 6.0691901,21.297566 5.966224,21.140435 5.8194338,20.965984 5.5670222,20.666009 5.5525424,20.588534 5.5525424,19.53796 V 18.427119 H 4.4140392 c -1.0939736,0 -1.1495415,-0.01058 -1.4207241,-0.270385 -0.2144735,-0.205478 -0.2947916,-0.235994 -0.3345876,-0.127118 -0.1463606,0.400417 -0.6655072,2.166271 -0.6655072,2.263692 0,0.178383 1.5536931,1.693133 1.7366614,1.693133 0.090839,0 0.6410652,-0.143838 1.2227248,-0.319638 z M 18.469012,7.9029188 c -0.41736,-0.4201646 -0.805589,-0.7639357 -0.86273,-0.7639357 -0.05714,0 -2.586677,2.4824696 -5.621189,5.5165989 l -5.5172964,5.5166 v 1.062581 c 0,1.017526 0.011718,1.074813 0.2763421,1.351021 l 0.2763422,0.28844 6.1036841,-6.103685 6.103684,-6.1036843 z M 11.375947,11.9427 16.944421,6.3735357 16.15398,5.5877311 15.36354,4.8019265 9.2672481,10.898854 3.1709566,16.99578 l 0.242418,0.258042 c 0.2299044,0.244722 0.2979533,0.258042 1.3182582,0.258042 H 5.807473 Z M 20.326891,7.5685611 20.701839,7.1845798 18.771504,5.2562513 16.84117,3.3279227 16.409984,3.759109 15.978797,4.1902954 17.857859,6.0714189 c 1.033485,1.0346179 1.927442,1.8811235 1.986574,1.8811235 0.05913,0 0.276236,-0.1727916 0.482458,-0.3839813 z M 22.998053,4.555766 C 23.144681,3.7741729 23.00446,3.5096607 21.792033,2.2808004 20.570251,1.0424543 20.232285,0.84903099 19.522863,0.98211925 19.222463,1.0384745 18.94979,1.2364677 18.318138,1.8568921 l -0.816443,0.8019308 1.932203,1.9394427 1.932204,1.9394426 0.78165,-0.8080033 c 0.576947,-0.596398 0.79963,-0.903837 0.850301,-1.1739389 z"
     id="path26"
     inkscape:connector-curvature="0" />
</svg>
