<?xml version="1.0" encoding="UTF-8" standalone="no"?>
<svg
   xmlns:dc="http://purl.org/dc/elements/1.1/"
   xmlns:cc="http://creativecommons.org/ns#"
   xmlns:rdf="http://www.w3.org/1999/02/22-rdf-syntax-ns#"
   xmlns:svg="http://www.w3.org/2000/svg"
   xmlns="http://www.w3.org/2000/svg"
   xmlns:sodipodi="http://sodipodi.sourceforge.net/DTD/sodipodi-0.dtd"
   xmlns:inkscape="http://www.inkscape.org/namespaces/inkscape"
   viewBox="0 0 64 58.67"
   version="1.1"
   id="svg12"
   sodipodi:docname="8731487111558965390.svg"
   inkscape:version="0.92.5 (2060ec1f9f, 2020-04-08)">
  <metadata
     id="metadata16">
    <rdf:RDF>
      <cc:Work
         rdf:about="">
        <dc:format>image/svg+xml</dc:format>
        <dc:type
           rdf:resource="http://purl.org/dc/dcmitype/StillImage" />
      </cc:Work>
    </rdf:RDF>
  </metadata>
  <sodipodi:namedview
     pagecolor="#ffffff"
     bordercolor="#666666"
     borderopacity="1"
     objecttolerance="10"
     gridtolerance="10"
     guidetolerance="10"
     inkscape:pageopacity="0"
     inkscape:pageshadow="2"
     inkscape:window-width="1920"
     inkscape:window-height="1013"
     id="namedview14"
     showgrid="false"
     inkscape:zoom="4.0224988"
     inkscape:cx="32"
     inkscape:cy="29.334999"
     inkscape:window-x="0"
     inkscape:window-y="360"
     inkscape:window-maximized="1"
     inkscape:current-layer="svg12" />
  <defs
     id="defs4">
    <style
       id="style2">.cls-1{fill:#35353d;}</style>
  </defs>
  <title
     id="title6">Asset 63</title>
  <g
     id="Layer_2"
     data-name="Layer 2">
    <g
       id="Layer_1-2"
       data-name="Layer 1">
      <path
         class="cls-1"
         d="M56,0H45.33a8.05,8.05,0,0,0-6.4,3.2l-5.6,7.47H8a8,8,0,0,0-8,8v32a8,8,0,0,0,8,8H56a8,8,0,0,0,8-8V8A8,8,0,0,0,56,0ZM43.2,6.4a2.68,2.68,0,0,1,2.13-1.07H56A2.68,2.68,0,0,1,58.67,8v2.67H40ZM58.67,50.67A2.67,2.67,0,0,1,56,53.33H8a2.67,2.67,0,0,1-2.67-2.66v-32A2.68,2.68,0,0,1,8,16H58.67Z"
         id="path8" />
    </g>
  </g>
  <path
     style="fill:#ffffff;stroke-width:0.24860169"
     d="M 5.5195158,58.127902 C 3.3811898,57.36377 1.6752217,55.808961 0.72731392,53.760316 0.21041105,52.64317 0.20384421,52.404433 0.20384421,34.729656 V 16.830334 L 0.85339085,15.463025 C 1.6796378,13.723758 3.0637083,12.339687 4.8029754,11.51344 l 1.3673093,-0.649546 13.6730923,-0.07708 13.673093,-0.07708 2.85892,-3.8582715 c 3.142136,-4.240487 4.213269,-5.3495299 5.936011,-6.14609892 1.090198,-0.50409166 1.518897,-0.5313434 8.358586,-0.5313434 h 7.209449 l 1.417678,0.69617529 c 1.778889,0.87355293 3.495198,2.74636863 4.096188,4.46970833 0.425017,1.218741 0.452574,2.6906964 0.452574,24.1743882 v 22.876626 l -0.818397,1.662354 c -0.962931,1.955939 -2.307016,3.208379 -4.205388,3.918652 -1.304905,0.488228 -1.895016,0.498953 -26.868706,0.488281 C 11.72668,58.451554 6.2319364,58.382485 5.5195158,58.127902 Z M 57.125104,53.145765 c 1.689166,-0.70578 1.624438,0.07212 1.624438,-19.522471 V 15.960228 H 32.995473 c -23.5821969,0 -25.8131686,0.03491 -26.4548951,0.413989 -0.3854552,0.227695 -0.8222314,0.680441 -0.9706136,1.006105 -0.3733507,0.819415 -0.3784356,33.959621 -0.00532,34.656797 0.1454574,0.271791 0.6209081,0.7115 1.0565572,0.977134 0.7700959,0.469561 1.4705009,0.482998 25.2251905,0.4839 20.555531,7.46e-4 24.567299,-0.05514 25.27871,-0.352388 z M 58.749542,8.8502201 c 0,-1.8172296 -0.03227,-1.9216476 -0.845246,-2.7346186 L 57.05905,5.2703558 h -6.308887 c -5.303052,0 -6.396827,0.061594 -6.860462,0.3863369 -0.303366,0.2124854 -1.24142,1.3032253 -2.084565,2.4238665 -0.843145,1.1206412 -1.640365,2.1773678 -1.771597,2.3482818 -0.189915,0.24734 1.695334,0.310752 9.2387,0.310752 h 9.477303 z"
     id="path18"
     inkscape:connector-curvature="0" />
</svg>
