<?xml version="1.0" encoding="UTF-8" standalone="no"?>
<svg
   xmlns:sketch="http://www.bohemiancoding.com/sketch/ns"
   xmlns:dc="http://purl.org/dc/elements/1.1/"
   xmlns:cc="http://creativecommons.org/ns#"
   xmlns:rdf="http://www.w3.org/1999/02/22-rdf-syntax-ns#"
   xmlns:svg="http://www.w3.org/2000/svg"
   xmlns="http://www.w3.org/2000/svg"
   xmlns:sodipodi="http://sodipodi.sourceforge.net/DTD/sodipodi-0.dtd"
   xmlns:inkscape="http://www.inkscape.org/namespaces/inkscape"
   width="32px"
   height="32px"
   viewBox="0 0 32 32"
   version="1.1"
   id="svg11"
   sodipodi:docname="inbox.svg"
   inkscape:version="0.92.5 (2060ec1f9f, 2020-04-08)">
  <metadata
     id="metadata15">
    <rdf:RDF>
      <cc:Work
         rdf:about="">
        <dc:format>image/svg+xml</dc:format>
        <dc:type
           rdf:resource="http://purl.org/dc/dcmitype/StillImage" />
      </cc:Work>
    </rdf:RDF>
  </metadata>
  <sodipodi:namedview
     pagecolor="#ffffff"
     bordercolor="#666666"
     borderopacity="1"
     objecttolerance="10"
     gridtolerance="10"
     guidetolerance="10"
     inkscape:pageopacity="0"
     inkscape:pageshadow="2"
     inkscape:window-width="1920"
     inkscape:window-height="1013"
     id="namedview13"
     showgrid="false"
     inkscape:zoom="7.375"
     inkscape:cx="16"
     inkscape:cy="16"
     inkscape:window-x="0"
     inkscape:window-y="360"
     inkscape:window-maximized="1"
     inkscape:current-layer="svg11" />
  <!-- Generator: Sketch 3.0.3 (7891) - http://www.bohemiancoding.com/sketch -->
  <title
     id="title2">icon 92 inbox download</title>
  <desc
     id="desc4">Created with Sketch.</desc>
  <defs
     id="defs6" />
  <g
     id="Page-1"
     stroke="none"
     stroke-width="1"
     fill="none"
     fill-rule="evenodd"
     sketch:type="MSPage">
    <g
       id="icon-92-inbox-download"
       sketch:type="MSArtboardGroup"
       fill="#000000">
      <path
         d="M16,16 L12.75,12.75 L12,13.5 L16.5,18 L21,13.5 L20.25,12.75 L17,16 L17,5 L16,5 L16,16 L16,16 L16,16 Z M21,18 L27.7750244,18 L27.7750244,18 L23.4000244,11 L18,11 L18,10 L24,10 L29,18 L29,19 L29,27 L4,27 L4,18 L9,10 L15,10 L15,11 L9.59997559,11 L5.22497559,18 L12,18 L12,20 C12,21.1045695 12.8958578,22 13.9973917,22 L19.0026083,22 C20.1057373,22 21,21.1122704 21,20 L21,18 L21,18 Z"
         id="inbox-download"
         sketch:type="MSShapeGroup" />
    </g>
  </g>
  <path
     style="fill:#ffffff;stroke-width:0.13559322"
     d="m 4.0135593,22.495107 v -4.379469 l 2.5175271,-4.027311 2.517527,-4.02731 h 2.9739986 2.973998 v 0.40678 0.406779 H 12.299713 9.6028155 l -2.1844586,3.501433 c -1.2014522,1.925789 -2.1844586,3.542738 -2.1844586,3.593221 0,0.05048 1.4876372,0.09179 3.3058605,0.09179 h 3.3058602 l 0.05546,1.254237 c 0.06351,1.436166 0.296147,1.973054 1.06163,2.450044 0.451072,0.281073 0.625674,0.295719 3.525424,0.295719 2.815549,0 3.087449,-0.02116 3.525423,-0.274289 0.745013,-0.430591 1.084746,-1.244753 1.084746,-2.599571 v -1.121484 l 3.3787,-0.03623 3.378699,-0.03623 -2.205735,-3.525423 -2.205736,-3.525424 -2.664489,-0.03676 -2.66449,-0.03677 v -0.406557 -0.406558 l 2.944006,0.03654 2.944005,0.03654 2.471142,3.932203 2.47114,3.932203 0.0086,4.440678 0.0086,4.440678 H 16.488136 4.0135593 Z"
     id="path17"
     inkscape:connector-curvature="0" />
  <path
     style="fill:#ffffff;stroke-width:0.13559322"
     d="m 14.251935,15.621428 -2.165225,-2.168402 0.303232,-0.303232 0.303232,-0.303232 1.594433,1.590278 c 0.876938,0.874653 1.639278,1.590279 1.694091,1.590279 0.05481,0 0.09966,-2.471187 0.09966,-5.491526 V 5.0440678 h 0.40678 0.406779 v 5.4915252 c 0,3.020339 0.04485,5.491526 0.09966,5.491526 0.05481,0 0.817153,-0.715626 1.69409,-1.590279 l 1.594433,-1.590278 0.303232,0.303232 0.303232,0.303232 -2.165225,2.168402 c -1.190874,1.192621 -2.197164,2.168403 -2.2362,2.168403 -0.03904,0 -1.045327,-0.975782 -2.236201,-2.168403 z"
     id="path19"
     inkscape:connector-curvature="0" />
</svg>
