<?xml version="1.0" encoding="UTF-8" standalone="no"?>
<!-- Generator: Adobe Illustrator 23.0.3, SVG Export Plug-In . SVG Version: 6.00 Build 0)  -->

<svg
   xmlns:dc="http://purl.org/dc/elements/1.1/"
   xmlns:cc="http://creativecommons.org/ns#"
   xmlns:rdf="http://www.w3.org/1999/02/22-rdf-syntax-ns#"
   xmlns:svg="http://www.w3.org/2000/svg"
   xmlns="http://www.w3.org/2000/svg"
   xmlns:sodipodi="http://sodipodi.sourceforge.net/DTD/sodipodi-0.dtd"
   xmlns:inkscape="http://www.inkscape.org/namespaces/inkscape"
   version="1.1"
   id="Icons"
   x="0px"
   y="0px"
   viewBox="0 0 32 32"
   style="enable-background:new 0 0 32 32;"
   xml:space="preserve"
   sodipodi:docname="16481730421594722074.svg"
   inkscape:version="0.92.5 (2060ec1f9f, 2020-04-08)"><metadata
   id="metadata15"><rdf:RDF><cc:Work
       rdf:about=""><dc:format>image/svg+xml</dc:format><dc:type
         rdf:resource="http://purl.org/dc/dcmitype/StillImage" /></cc:Work></rdf:RDF></metadata><defs
   id="defs13" /><sodipodi:namedview
   pagecolor="#ffffff"
   bordercolor="#666666"
   borderopacity="1"
   objecttolerance="10"
   gridtolerance="10"
   guidetolerance="10"
   inkscape:pageopacity="0"
   inkscape:pageshadow="2"
   inkscape:window-width="1920"
   inkscape:window-height="1013"
   id="namedview11"
   showgrid="false"
   inkscape:zoom="7.375"
   inkscape:cx="16"
   inkscape:cy="16"
   inkscape:window-x="0"
   inkscape:window-y="360"
   inkscape:window-maximized="1"
   inkscape:current-layer="Icons" />
<style
   type="text/css"
   id="style2">
	.st0{fill:none;stroke:#000000;stroke-width:2;stroke-linecap:round;stroke-linejoin:round;stroke-miterlimit:10;}
	.st1{fill:none;stroke:#000000;stroke-width:2;stroke-linejoin:round;stroke-miterlimit:10;}
</style>
<circle
   class="st0"
   cx="16"
   cy="16"
   r="14"
   id="circle4" />
<circle
   class="st0"
   cx="16"
   cy="13"
   r="5"
   id="circle6" />
<path
   class="st0"
   d="M5.4,25.1c1.8-4.1,5.8-7,10.6-7c4.8,0,8.9,2.9,10.6,7"
   id="path8" />
<path
   style="fill:#ffffff;stroke-width:0.13559322"
   d="M 13.618373,30.733096 C 12.121539,30.499927 10.64202,30.002396 9.1426639,29.228008 2.9583289,26.033925 -0.20146838,18.937047 1.5670581,12.213262 2.9257306,7.0477073 6.9465855,3.0255395 12.216949,1.5598944 c 1.257542,-0.3497122 1.533034,-0.3766513 3.79661,-0.3712527 2.199566,0.00525 2.570688,0.041005 3.75672,0.3619714 8.189133,2.2161618 12.897194,10.6010609 10.526697,18.7476919 -0.407541,1.400589 -1.343407,3.264228 -2.251741,4.484008 -3.415235,4.586244 -8.835117,6.821835 -14.426862,5.950783 z m 5.649424,-2.082343 c 1.458855,-0.378009 3.633598,-1.47089 4.841742,-2.433139 1.481361,-1.179857 1.457346,-1.130527 0.982782,-2.018794 -0.546886,-1.023638 -2.050977,-2.607265 -3.204935,-3.374415 -1.996098,-1.327003 -4.584549,-1.971761 -6.890776,-1.716425 -2.416323,0.267526 -4.491438,1.200097 -6.1752101,2.775183 -0.8564926,0.801207 -2.2315694,2.664639 -2.2315694,3.024106 0,0.0987 0.320339,0.469336 0.7118644,0.823623 1.6067242,1.453907 3.8094041,2.566087 6.0549171,3.057256 1.547288,0.338443 4.323835,0.273908 5.911185,-0.137395 z M 5.8252812,22.487045 c 0.7795541,-1.092447 2.0987703,-2.406572 3.1026391,-3.090664 0.8348039,-0.568883 2.8888647,-1.60655 3.1801617,-1.60655 0.268309,0 0.222305,-0.08825 -0.357372,-0.685571 -1.188052,-1.224206 -1.69789,-2.634576 -1.610807,-4.455992 0.0456,-0.953663 0.134411,-1.336089 0.483596,-2.082279 1.915701,-4.0937586 7.377072,-4.6950179 10.099651,-1.1119013 0.860219,1.1321133 1.113889,1.9469163 1.117654,3.5899803 0.003,1.322549 -0.02743,1.488516 -0.428598,2.335367 -0.237524,0.5014 -0.719634,1.21929 -1.071357,1.595309 -0.351722,0.376019 -0.615012,0.70152 -0.585088,0.723335 0.02992,0.02182 0.458244,0.207379 0.951823,0.412364 2.105607,0.874474 3.86012,2.210677 5.149407,3.92169 0.461531,0.612496 0.902217,1.11363 0.979305,1.11363 0.215446,0 1.133701,-1.778183 1.50544,-2.915255 0.5353,-1.63738 0.67428,-2.538751 0.669017,-4.338983 -0.0061,-2.081682 -0.334889,-3.564797 -1.190947,-5.371953 C 27.06352,8.9230366 26.567591,8.2003022 25.378293,6.9614721 23.485337,4.9896791 21.310797,3.7845407 18.589831,3.1992789 c -1.234794,-0.2655958 -3.91775,-0.2655958 -5.152543,0 -5.0586178,1.0880749 -8.7616386,4.629265 -10.1280267,9.6854081 -0.2198907,0.813677 -0.283793,1.469685 -0.2928982,3.006838 -0.012503,2.110864 0.2206304,3.427417 0.8883965,5.01695 0.3073397,0.731582 1.1954944,2.440678 1.2683317,2.440678 0.020351,0 0.3138371,-0.387949 0.6521899,-0.862108 z m 11.8319938,-5.78005 c 0.861353,-0.373748 1.597122,-1.123844 2.014366,-2.053588 0.330842,-0.737213 0.367331,-0.954826 0.312885,-1.866006 -0.07026,-1.175882 -0.38103,-1.907069 -1.128028,-2.654068 -0.854506,-0.8545056 -1.462353,-1.0871928 -2.842939,-1.0882929 -1.114674,-8.813e-4 -1.284912,0.035409 -1.966101,0.4192018 -2.73801,1.5426361 -2.773132,5.4591901 -0.0632,7.0473161 1.069733,0.626906 2.502897,0.703163 3.673015,0.195437 z"
   id="path17"
   inkscape:connector-curvature="0" /></svg>