<?xml version="1.0" encoding="UTF-8" standalone="no"?>
<!-- Generator: Adobe Illustrator 21.1.0, SVG Export Plug-In . SVG Version: 6.00 Build 0)  -->

<svg
   xmlns:dc="http://purl.org/dc/elements/1.1/"
   xmlns:cc="http://creativecommons.org/ns#"
   xmlns:rdf="http://www.w3.org/1999/02/22-rdf-syntax-ns#"
   xmlns:svg="http://www.w3.org/2000/svg"
   xmlns="http://www.w3.org/2000/svg"
   xmlns:sodipodi="http://sodipodi.sourceforge.net/DTD/sodipodi-0.dtd"
   xmlns:inkscape="http://www.inkscape.org/namespaces/inkscape"
   version="1.1"
   id="Layer_1"
   x="0px"
   y="0px"
   viewBox="0 0 78.667 78.67"
   style="enable-background:new 0 0 78.667 78.67;"
   xml:space="preserve"
   sodipodi:docname="move-to-spam.svg"
   inkscape:version="0.92.5 (2060ec1f9f, 2020-04-08)"><metadata
   id="metadata13"><rdf:RDF><cc:Work
       rdf:about=""><dc:format>image/svg+xml</dc:format><dc:type
         rdf:resource="http://purl.org/dc/dcmitype/StillImage" /></cc:Work></rdf:RDF></metadata><defs
   id="defs11" /><sodipodi:namedview
   pagecolor="#ffffff"
   bordercolor="#666666"
   borderopacity="1"
   objecttolerance="10"
   gridtolerance="10"
   guidetolerance="10"
   inkscape:pageopacity="0"
   inkscape:pageshadow="2"
   inkscape:window-width="1920"
   inkscape:window-height="1013"
   id="namedview9"
   showgrid="false"
   inkscape:zoom="2.999873"
   inkscape:cx="39.3335"
   inkscape:cy="39.334999"
   inkscape:window-x="0"
   inkscape:window-y="360"
   inkscape:window-maximized="1"
   inkscape:current-layer="Layer_1" />
<g
   id="g6">
	<path
   style="fill:#231F20;"
   d="M55.182,24.972c-1.219-1.218-3.191-1.217-4.408,0L39.335,36.411L27.9,24.972   c-1.218-1.217-3.19-1.218-4.408,0c-1.217,1.217-1.217,3.19,0,4.408l11.436,11.439L23.492,52.253c-1.217,1.218-1.217,3.19,0,4.408   c0.608,0.608,1.406,0.912,2.204,0.912c0.797,0,1.595-0.304,2.204-0.912l11.435-11.435l11.431,11.434   c0.608,0.609,1.406,0.913,2.204,0.913s1.595-0.304,2.203-0.912c1.218-1.217,1.218-3.19,0.001-4.407L43.742,40.819l11.44-11.44   C56.399,28.163,56.399,26.189,55.182,24.972z"
   id="path2" />
	<path
   style="fill:#231F20;"
   d="M39.34,0C17.648,0,0,17.648,0,39.34C0,61.027,17.648,78.67,39.34,78.67   c21.685,0,39.327-17.644,39.327-39.331C78.667,17.648,61.025,0,39.34,0z M39.34,72.438c-18.255,0-33.106-14.848-33.106-33.098   c0-18.255,14.852-33.106,33.106-33.106c18.249,0,33.094,14.852,33.094,33.106C72.434,57.59,57.588,72.438,39.34,72.438z"
   id="path4" />
</g>
<path
   style="fill:#000000;stroke-width:0.33334744"
   d="m 23.748181,56.584979 c -0.656311,-0.608248 -0.882045,-1.142329 -0.882045,-2.086894 0,-1.201369 0.321768,-1.590838 6.000254,-7.262751 3.30014,-3.29632 6.000254,-6.139729 6.000254,-6.318688 0,-0.178959 -2.700114,-3.039856 -6.000254,-6.357549 -5.570008,-5.599635 -6.000254,-6.119003 -6.000254,-7.243159 0,-1.760069 1.150499,-2.981574 2.808255,-2.981574 1.221637,0 1.584277,0.298686 7.325471,6.033589 3.322114,3.318474 6.190341,6.033589 6.373836,6.033589 0.183496,0 2.957133,-2.637132 6.163637,-5.860293 3.206504,-3.22316 6.174697,-5.997293 6.595984,-6.164739 0.96247,-0.382546 2.863811,0.354415 3.374036,1.307778 0.198098,0.37015 0.360178,1.15491 0.360178,1.743912 0,0.943034 -0.734835,1.811402 -6.153946,7.272221 l -6.153946,6.201311 6.153946,6.186885 c 5.698476,5.728977 6.153946,6.275735 6.153946,7.387349 0,1.500858 -1.504824,2.926465 -3.089082,2.926465 -0.900787,0 -1.855869,-0.813916 -7.23214,-6.163192 l -6.194293,-6.163192 -5.659498,5.685747 c -3.112724,3.127161 -6.064567,5.900598 -6.55965,6.163192 -1.310722,0.695214 -2.384004,0.587396 -3.384689,-0.340007 z"
   id="path15"
   inkscape:connector-curvature="0" /><path
   style="fill:#000000;stroke-width:0.33334744"
   d="M 32.3989,77.888528 C 9.4935763,73.571519 -4.6594404,50.746546 1.7365756,28.438529 2.8420824,24.582744 5.386061,19.437376 7.7816858,16.211887 19.272456,0.7406194 39.81271,-4.1944513 56.925435,4.4044439 68.421635,10.181118 76.594281,21.738612 78.191739,34.478573 80.655293,54.125802 67.91266,72.551166 48.488248,77.428692 44.758333,78.365285 36.222822,78.609232 32.3989,77.888528 Z M 46.028547,71.855373 C 58.196872,69.549792 68.344685,59.856445 71.577292,47.450816 72.450742,44.098804 72.742965,38.299965 72.219006,34.71659 70.250176,21.251689 60.648916,10.537791 47.537674,7.1750795 32.163703,3.2320329 16.324043,10.667402 9.385217,25.084405 c -2.4368209,5.063054 -2.9627981,7.52005 -2.9935838,13.983916 -0.020857,4.379136 0.1033784,6.009821 0.6095105,8.000339 1.5279707,6.009201 4.3310443,11.044824 8.5313483,15.326272 8.195817,8.354147 18.865596,11.664111 30.496055,9.460441 z"
   id="path17"
   inkscape:connector-curvature="0" /></svg>