<?xml version="1.0" encoding="UTF-8" standalone="no"?>
<svg
   xmlns:dc="http://purl.org/dc/elements/1.1/"
   xmlns:cc="http://creativecommons.org/ns#"
   xmlns:rdf="http://www.w3.org/1999/02/22-rdf-syntax-ns#"
   xmlns:svg="http://www.w3.org/2000/svg"
   xmlns="http://www.w3.org/2000/svg"
   xmlns:sodipodi="http://sodipodi.sourceforge.net/DTD/sodipodi-0.dtd"
   xmlns:inkscape="http://www.inkscape.org/namespaces/inkscape"
   viewBox="0 0 64 58.67"
   version="1.1"
   id="svg14"
   sodipodi:docname="move-to-folder.svg"
   inkscape:version="0.92.5 (2060ec1f9f, 2020-04-08)">
  <metadata
     id="metadata18">
    <rdf:RDF>
      <cc:Work
         rdf:about="">
        <dc:format>image/svg+xml</dc:format>
        <dc:type
           rdf:resource="http://purl.org/dc/dcmitype/StillImage" />
      </cc:Work>
    </rdf:RDF>
  </metadata>
  <sodipodi:namedview
     pagecolor="#ffffff"
     bordercolor="#666666"
     borderopacity="1"
     objecttolerance="10"
     gridtolerance="10"
     guidetolerance="10"
     inkscape:pageopacity="0"
     inkscape:pageshadow="2"
     inkscape:window-width="1920"
     inkscape:window-height="1013"
     id="namedview16"
     showgrid="false"
     inkscape:zoom="4.0224988"
     inkscape:cx="32"
     inkscape:cy="29.334999"
     inkscape:window-x="0"
     inkscape:window-y="360"
     inkscape:window-maximized="1"
     inkscape:current-layer="svg14" />
  <defs
     id="defs4">
    <style
       id="style2">.cls-1{fill:#35353d;}</style>
  </defs>
  <title
     id="title6">Asset 62</title>
  <g
     id="Layer_2"
     data-name="Layer 2">
    <g
       id="Layer_1-2"
       data-name="Layer 1">
      <path
         class="cls-1"
         d="M45.33,50.67h5.34V56A2.67,2.67,0,1,0,56,56V50.67h5.33a2.67,2.67,0,0,0,0-5.34H56V40a2.67,2.67,0,1,0-5.33,0v5.33H45.33a2.67,2.67,0,0,0,0,5.34Z"
         id="path8" />
      <path
         class="cls-1"
         d="M34.67,53.33H8a2.67,2.67,0,0,1-2.67-2.66v-32A2.67,2.67,0,0,1,8,16H58.67V29.33A2.66,2.66,0,0,0,61.33,32h0A2.66,2.66,0,0,0,64,29.33V8a8,8,0,0,0-8-8H45.33a8,8,0,0,0-6.4,3.2l-5.6,7.47H8a8,8,0,0,0-8,8v32a8,8,0,0,0,8,8H34.67A2.67,2.67,0,0,0,37.33,56h0A2.67,2.67,0,0,0,34.67,53.33ZM43.2,6.4a2.68,2.68,0,0,1,2.13-1.07H56A2.68,2.68,0,0,1,58.67,8v2.67H40Z"
         id="path10" />
    </g>
  </g>
  <path
     style="fill:#000000;stroke-width:0.24860169"
     d="M 5.5195158,58.127902 C 3.3811898,57.36377 1.6752217,55.808961 0.72731392,53.760316 0.21041105,52.64317 0.20384421,52.404433 0.20384421,34.729656 V 16.830334 L 0.85339085,15.463025 C 1.6796378,13.723758 3.0637083,12.339687 4.8029754,11.51344 l 1.3673093,-0.649546 13.6730923,-0.07708 13.673093,-0.07708 2.85892,-3.8582715 c 3.142136,-4.240487 4.213269,-5.3495299 5.936011,-6.14609892 1.090198,-0.50409166 1.518897,-0.5313434 8.358586,-0.5313434 h 7.209449 l 1.417678,0.69617529 c 1.702698,0.83613813 3.456881,2.69997613 4.084148,4.33945023 0.406968,1.0636826 0.45959,2.2893819 0.536251,12.4907933 0.05764,7.670705 -0.0022,11.607141 -0.185753,12.230296 -0.571535,1.939754 -2.564403,2.538158 -4.046039,1.214916 l -0.811879,-0.725084 -0.07291,-7.23017 -0.07291,-7.23017 H 32.984714 c -23.5721589,0 -25.8024148,0.03491 -26.4441361,0.413989 -0.3854552,0.227695 -0.8222314,0.680441 -0.9706136,1.006105 -0.1854959,0.407119 -0.2697855,5.852807 -0.2697855,17.430017 0,18.486857 -0.080265,17.502994 1.4943557,18.317261 0.6125172,0.316746 2.792674,0.371483 14.7958325,0.371483 h 14.077465 l 0.72668,0.726683 c 1.023294,1.023291 1.023294,2.495376 0,3.518668 l -0.72668,0.726683 -14.624473,-0.01091 C 9.7378606,58.451778 6.2147772,58.376355 5.5195158,58.127902 Z M 58.749542,8.8502201 c 0,-1.8172296 -0.03227,-1.9216476 -0.845246,-2.7346186 L 57.05905,5.2703558 h -6.308887 c -5.303052,0 -6.396827,0.061594 -6.860462,0.3863369 -0.303366,0.2124854 -1.24142,1.3032253 -2.084565,2.4238665 -0.843145,1.1206412 -1.640365,2.1773678 -1.771597,2.3482818 -0.189915,0.24734 1.695334,0.310752 9.2387,0.310752 h 9.477303 z"
     id="path20"
     inkscape:connector-curvature="0" />
  <path
     style="fill:#000000;stroke-width:0.24860169"
     d="m 51.639533,57.874473 -0.845245,-0.845246 v -3.256682 -3.256682 h -3.250946 -3.250945 l -0.726682,-0.726682 c -1.023293,-1.023294 -1.023293,-2.495377 0,-3.51867 l 0.726682,-0.726682 h 3.250945 3.250946 v -3.123864 c 0,-1.810971 0.11671,-3.352081 0.277698,-3.666875 0.75912,-1.484383 2.633369,-1.878344 3.872517,-0.813991 0.688343,0.591246 0.699152,0.64438 0.821818,4.039778 l 0.124301,3.440651 3.226414,0.07 c 3.093463,0.06712 3.25431,0.09673 3.903398,0.718593 0.868705,0.832273 1.088576,1.826543 0.609,2.753941 -0.678803,1.312658 -0.989975,1.42054 -4.481759,1.553799 l -3.257053,0.124301 -0.06099,2.98322 c -0.0763,3.732326 -0.143348,4.006437 -1.12654,4.605913 -1.201997,0.732888 -2.077215,0.631519 -3.063559,-0.354824 z"
     id="path22"
     inkscape:connector-curvature="0" />
</svg>
