<?xml version="1.0" encoding="UTF-8" standalone="no"?>
<svg
   xmlns:sketch="http://www.bohemiancoding.com/sketch/ns"
   xmlns:dc="http://purl.org/dc/elements/1.1/"
   xmlns:cc="http://creativecommons.org/ns#"
   xmlns:rdf="http://www.w3.org/1999/02/22-rdf-syntax-ns#"
   xmlns:svg="http://www.w3.org/2000/svg"
   xmlns="http://www.w3.org/2000/svg"
   xmlns:sodipodi="http://sodipodi.sourceforge.net/DTD/sodipodi-0.dtd"
   xmlns:inkscape="http://www.inkscape.org/namespaces/inkscape"
   width="32px"
   height="32px"
   viewBox="0 0 32 32"
   version="1.1"
   id="svg11"
   sodipodi:docname="search.svg"
   inkscape:version="0.92.5 (2060ec1f9f, 2020-04-08)">
  <metadata
     id="metadata15">
    <rdf:RDF>
      <cc:Work
         rdf:about="">
        <dc:format>image/svg+xml</dc:format>
        <dc:type
           rdf:resource="http://purl.org/dc/dcmitype/StillImage" />
      </cc:Work>
    </rdf:RDF>
  </metadata>
  <sodipodi:namedview
     pagecolor="#ffffff"
     bordercolor="#666666"
     borderopacity="1"
     objecttolerance="10"
     gridtolerance="10"
     guidetolerance="10"
     inkscape:pageopacity="0"
     inkscape:pageshadow="2"
     inkscape:window-width="1920"
     inkscape:window-height="1013"
     id="namedview13"
     showgrid="false"
     inkscape:zoom="7.375"
     inkscape:cx="16"
     inkscape:cy="16"
     inkscape:window-x="0"
     inkscape:window-y="360"
     inkscape:window-maximized="1"
     inkscape:current-layer="svg11" />
  <!-- Generator: Sketch 3.0.3 (7891) - http://www.bohemiancoding.com/sketch -->
  <title
     id="title2">icon 111 search</title>
  <desc
     id="desc4">Created with Sketch.</desc>
  <defs
     id="defs6" />
  <g
     id="Page-1"
     stroke="none"
     stroke-width="1"
     fill="none"
     fill-rule="evenodd"
     sketch:type="MSPage">
    <g
       id="icon-111-search"
       sketch:type="MSArtboardGroup"
       fill="#000000">
      <path
         d="M19.4271164,21.4271164 C18.0372495,22.4174803 16.3366522,23 14.5,23 C9.80557939,23 6,19.1944206 6,14.5 C6,9.80557939 9.80557939,6 14.5,6 C19.1944206,6 23,9.80557939 23,14.5 C23,16.3366522 22.4174803,18.0372495 21.4271164,19.4271164 L27.0119176,25.0119176 C27.5621186,25.5621186 27.5575313,26.4424687 27.0117185,26.9882815 L26.9882815,27.0117185 C26.4438648,27.5561352 25.5576204,27.5576204 25.0119176,27.0119176 L19.4271164,21.4271164 L19.4271164,21.4271164 Z M14.5,21 C18.0898511,21 21,18.0898511 21,14.5 C21,10.9101489 18.0898511,8 14.5,8 C10.9101489,8 8,10.9101489 8,14.5 C8,18.0898511 10.9101489,21 14.5,21 L14.5,21 Z"
         id="search"
         sketch:type="MSShapeGroup" />
    </g>
  </g>
  <path
     style="fill:#ffffff;stroke-width:0.13559322"
     d="m 25.640678,27.262814 c -0.273029,-0.07372 -1.358861,-1.06348 -3.302391,-3.010217 l -2.89561,-2.900391 -0.720094,0.433618 c -1.27,0.764755 -2.504198,1.083676 -4.200549,1.085436 -1.165686,0.0012 -1.698878,-0.06396 -2.440678,-0.298303 C 9.4090865,21.728751 7.2633473,19.583315 6.4160724,16.908475 6.1786156,16.158825 6.1168333,15.645817 6.122138,14.467797 6.1279967,13.166759 6.180975,12.828311 6.5369591,11.81774 6.7614167,11.180548 7.1736226,10.31487 7.4529723,9.8940118 8.5494001,8.2421734 10.504727,6.839348 12.420339,6.3302342 c 0.970439,-0.2579144 3.116099,-0.2562866 4.141004,0.00314 1.392197,0.352399 2.745939,1.1240872 3.803617,2.1682181 1.677426,1.6559417 2.514889,3.6158977 2.520306,5.8984057 0.0037,1.572217 -0.268187,2.696382 -0.983309,4.065186 l -0.529935,1.01434 2.981785,2.992559 c 2.767866,2.777869 2.981786,3.027233 2.981786,3.475851 0,0.892289 -0.841678,1.545245 -1.694915,1.314879 z m -8.867295,-6.611805 c 2.92192,-1.11346 4.700664,-4.168621 4.18993,-7.196599 C 20.37192,9.9482392 17.03967,7.497 13.58188,8.0245492 10.922974,8.430214 8.7513542,10.389176 8.1547505,12.920221 c -0.8290339,3.517113 1.1962294,6.938117 4.6875985,7.918127 1.015981,0.285181 2.930481,0.193942 3.931034,-0.187339 z"
     id="path17"
     inkscape:connector-curvature="0" />
</svg>
