<?xml version="1.0" encoding="UTF-8" standalone="no"?>
<svg
   xmlns:sketch="http://www.bohemiancoding.com/sketch/ns"
   xmlns:dc="http://purl.org/dc/elements/1.1/"
   xmlns:cc="http://creativecommons.org/ns#"
   xmlns:rdf="http://www.w3.org/1999/02/22-rdf-syntax-ns#"
   xmlns:svg="http://www.w3.org/2000/svg"
   xmlns="http://www.w3.org/2000/svg"
   xmlns:sodipodi="http://sodipodi.sourceforge.net/DTD/sodipodi-0.dtd"
   xmlns:inkscape="http://www.inkscape.org/namespaces/inkscape"
   width="32px"
   height="32px"
   viewBox="0 0 32 32"
   version="1.1"
   id="svg11"
   sodipodi:docname="sent.svg"
   inkscape:version="0.92.5 (2060ec1f9f, 2020-04-08)">
  <metadata
     id="metadata15">
    <rdf:RDF>
      <cc:Work
         rdf:about="">
        <dc:format>image/svg+xml</dc:format>
        <dc:type
           rdf:resource="http://purl.org/dc/dcmitype/StillImage" />
      </cc:Work>
    </rdf:RDF>
  </metadata>
  <sodipodi:namedview
     pagecolor="#ffffff"
     bordercolor="#666666"
     borderopacity="1"
     objecttolerance="10"
     gridtolerance="10"
     guidetolerance="10"
     inkscape:pageopacity="0"
     inkscape:pageshadow="2"
     inkscape:window-width="1920"
     inkscape:window-height="1013"
     id="namedview13"
     showgrid="false"
     inkscape:zoom="7.375"
     inkscape:cx="16"
     inkscape:cy="16"
     inkscape:window-x="0"
     inkscape:window-y="360"
     inkscape:window-maximized="1"
     inkscape:current-layer="svg11" />
  <!-- Generator: Sketch 3.0.3 (7891) - http://www.bohemiancoding.com/sketch -->
  <title
     id="title2">icon 93 inbox upload</title>
  <desc
     id="desc4">Created with Sketch.</desc>
  <defs
     id="defs6" />
  <g
     id="Page-1"
     stroke="none"
     stroke-width="1"
     fill="none"
     fill-rule="evenodd"
     sketch:type="MSPage">
    <g
       id="icon-93-inbox-upload"
       sketch:type="MSArtboardGroup"
       fill="#000000">
      <path
         d="M16,6 L12.75,9.25 L12,8.5 L16.5,4 L21,8.5 L20.25,9.25 L17,6 L17,17 L16,17 L16,6 L16,6 Z M21,19 L27.7750244,19 L23.4000244,12 L18,12 L18,11 L24,11 L29,19 L29,20 L29,28 L4,28 L4,19 L9,11 L15,11 L15,11 L15,12 L9.59997559,12 L5.22497559,19 L12,19 L12,21 C12,22.1045695 12.8958578,23 13.9973917,23 L19.0026083,23 C20.1057373,23 21,22.1122704 21,21 L21,19 L21,19 L21,19 Z"
         id="inbox-upload"
         sketch:type="MSShapeGroup" />
    </g>
  </g>
  <path
     style="fill:#ffffff;stroke-width:0.13559322"
     d="m 4.0135593,23.53886 v -4.420462 l 2.5327584,-4.054114 2.5327584,-4.054115 h 2.9587669 2.958767 v 0.474577 0.474576 l -2.745763,0.0054 -2.7457623,0.0054 -2.1016949,3.385593 c -1.1559322,1.862076 -2.1220339,3.446094 -2.1468926,3.52004 -0.029058,0.08644 1.1393649,0.134448 3.2719621,0.134448 h 3.3171597 l 0.05511,1.260096 c 0.0605,1.383235 0.28084,1.940669 0.970229,2.454544 0.36411,0.27141 0.540941,0.28536 3.617176,0.28536 3.05519,0 3.255092,-0.01549 3.608797,-0.279564 0.785218,-0.58625 0.920142,-0.912768 0.978601,-2.368228 l 0.05431,-1.352208 h 3.366127 3.366124 l -2.195455,-3.522822 -2.195455,-3.522822 -2.677966,-0.0026 -2.677966,-0.0026 v -0.474576 -0.474577 h 2.906202 2.906202 l 2.517527,4.027311 2.517527,4.02731 v 4.447266 4.447266 H 16.488136 4.0135593 Z"
     id="path17"
     inkscape:connector-curvature="0" />
  <path
     style="fill:#ffffff;stroke-width:0.13559322"
     d="m 16.081356,11.484746 c 0,-3.0203392 -0.04676,-5.4915257 -0.103907,-5.4915257 -0.05715,0 -0.80219,0.7002701 -1.655648,1.556156 L 12.77006,9.1055322 12.45509,8.8096329 12.140119,8.5137337 14.346484,6.3043249 16.552849,4.094916 18.689984,6.2289195 c 1.175424,1.1737019 2.137135,2.201533 2.137135,2.2840691 0,0.082536 -0.12458,0.262809 -0.276845,0.4006062 C 20.276845,9.161045 20.253821,9.1445782 18.683831,7.578678 17.809552,6.7066762 17.049386,5.9932203 16.994574,5.9932203 c -0.05481,0 -0.09966,2.4711865 -0.09966,5.4915257 v 5.491525 h -0.406779 -0.40678 z"
     id="path19"
     inkscape:connector-curvature="0" />
</svg>
