<?xml version="1.0" encoding="UTF-8" standalone="no"?>
<svg
   xmlns:dc="http://purl.org/dc/elements/1.1/"
   xmlns:cc="http://creativecommons.org/ns#"
   xmlns:rdf="http://www.w3.org/1999/02/22-rdf-syntax-ns#"
   xmlns:svg="http://www.w3.org/2000/svg"
   xmlns="http://www.w3.org/2000/svg"
   xmlns:sodipodi="http://sodipodi.sourceforge.net/DTD/sodipodi-0.dtd"
   xmlns:inkscape="http://www.inkscape.org/namespaces/inkscape"
   enable-background="new 0 0 32 32"
   id="Editable-line"
   version="1.1"
   viewBox="0 0 32 32"
   xml:space="preserve"
   sodipodi:docname="settings.svg"
   inkscape:version="0.92.5 (2060ec1f9f, 2020-04-08)"><metadata
     id="metadata9"><rdf:RDF><cc:Work
         rdf:about=""><dc:format>image/svg+xml</dc:format><dc:type
           rdf:resource="http://purl.org/dc/dcmitype/StillImage" /></cc:Work></rdf:RDF></metadata><defs
     id="defs7" /><sodipodi:namedview
     pagecolor="#ffffff"
     bordercolor="#666666"
     borderopacity="1"
     objecttolerance="10"
     gridtolerance="10"
     guidetolerance="10"
     inkscape:pageopacity="0"
     inkscape:pageshadow="2"
     inkscape:window-width="1920"
     inkscape:window-height="1013"
     id="namedview5"
     showgrid="false"
     inkscape:zoom="7.375"
     inkscape:cx="16"
     inkscape:cy="16"
     inkscape:window-x="0"
     inkscape:window-y="360"
     inkscape:window-maximized="1"
     inkscape:current-layer="Editable-line" /><circle
     cx="16"
     cy="16"
     fill="none"
     id="XMLID_224_"
     r="4"
     stroke="#000000"
     stroke-linecap="round"
     stroke-linejoin="round"
     stroke-miterlimit="10"
     stroke-width="2" /><path
     d="  M27.758,10.366l-1-1.732c-0.552-0.957-1.775-1.284-2.732-0.732L23.5,8.206C21.5,9.36,19,7.917,19,5.608V5c0-1.105-0.895-2-2-2h-2  c-1.105,0-2,0.895-2,2v0.608c0,2.309-2.5,3.753-4.5,2.598L7.974,7.902C7.017,7.35,5.794,7.677,5.242,8.634l-1,1.732  c-0.552,0.957-0.225,2.18,0.732,2.732L5.5,13.402c2,1.155,2,4.041,0,5.196l-0.526,0.304c-0.957,0.552-1.284,1.775-0.732,2.732  l1,1.732c0.552,0.957,1.775,1.284,2.732,0.732L8.5,23.794c2-1.155,4.5,0.289,4.5,2.598V27c0,1.105,0.895,2,2,2h2  c1.105,0,2-0.895,2-2v-0.608c0-2.309,2.5-3.753,4.5-2.598l0.526,0.304c0.957,0.552,2.18,0.225,2.732-0.732l1-1.732  c0.552-0.957,0.225-2.18-0.732-2.732L26.5,18.598c-2-1.155-2-4.041,0-5.196l0.526-0.304C27.983,12.546,28.311,11.323,27.758,10.366z  "
     fill="none"
     id="XMLID_242_"
     stroke="#000000"
     stroke-linecap="round"
     stroke-linejoin="round"
     stroke-miterlimit="10"
     stroke-width="2" /><path
     style="fill:#ffffff;stroke-width:0.13559322"
     d="M 14.143361,29.774594 C 12.839856,29.373957 12.014277,28.069767 12.013052,26.409288 12.012388,25.513995 11.642458,24.905203 10.892114,24.564586 10.08829,24.199692 9.7804778,24.230415 8.6515778,24.788216 7.7610332,25.228243 7.5726808,25.272561 6.8017763,25.223474 5.3573054,25.131497 4.7906994,24.615752 3.5801178,22.291009 2.9829885,21.144309 2.9126987,20.357013 3.3295746,19.484746 3.6897495,18.731119 3.9656537,18.43966 4.8376858,17.891605 5.683176,17.360233 6.0477595,16.771487 6.0469508,15.93883 6.0462457,15.213551 5.6524483,14.640626 4.7387448,14.035563 4.3094169,13.751257 3.772311,13.253829 3.5451761,12.930166 3.1763179,12.40455 3.132758,12.23798 3.1373956,11.370844 3.1423257,10.449036 3.179193,10.336403 3.8673147,9.1408744 4.7098946,7.6769934 5.3914544,7.0292091 6.3246165,6.8053468 7.1114595,6.6165862 7.6156963,6.7086028 8.6537604,7.2303859 9.8636593,7.8385416 10.80954,7.7298927 11.591351,6.8929586 c 0.263087,-0.2816362 0.342922,-0.5588554 0.427187,-1.4833654 0.11885,-1.3039575 0.426316,-2.0191574 1.135869,-2.6421531 0.633476,-0.5561992 1.232079,-0.7047578 2.843421,-0.705667 1.557475,-8.787e-4 2.187007,0.1551814 2.858389,0.7085901 0.681963,0.5621324 0.909199,1.0837606 1.041736,2.3913506 0.07487,0.7387075 0.211312,1.2933345 0.388804,1.5805235 0.558339,0.903411 1.898264,1.1449963 2.965829,0.5347319 0.929597,-0.5313958 1.642614,-0.6652912 2.476943,-0.4651386 0.979442,0.2349645 1.755902,1.0461036 2.607933,2.7244128 0.594649,1.1713246 0.656172,1.3755926 0.597677,1.9843666 -0.08825,0.918391 -0.49019,1.645121 -1.180079,2.133627 -0.315959,0.223729 -0.823592,0.625772 -1.128072,0.89343 -0.496474,0.436433 -0.559978,0.563568 -0.615415,1.232058 -0.08147,0.982435 0.186816,1.4864 1.103437,2.072754 2.001672,1.280454 2.323907,2.732977 1.084045,4.886504 -0.889607,1.545169 -1.18611,1.901182 -1.851738,2.223408 -0.929859,0.450136 -1.875995,0.388505 -3.019497,-0.196691 -0.787985,-0.403257 -1.037161,-0.469704 -1.529196,-0.407791 -0.701115,0.08822 -1.302624,0.485516 -1.597025,1.054826 -0.118057,0.228297 -0.261039,0.92405 -0.317737,1.546121 -0.199766,2.191708 -1.320122,3.036782 -4.005896,3.021605 -0.59661,-0.0034 -1.377183,-0.09601 -1.734605,-0.205867 z m 3.509911,-1.9951 c 0.32581,-0.280251 0.377045,-0.442783 0.459491,-1.457627 0.106387,-1.309536 0.391488,-1.970262 1.177443,-2.728735 0.734831,-0.709137 1.672377,-1.090263 2.7059,-1.099986 0.707924,-0.0067 1.028729,0.07656 1.935498,0.502078 0.996325,0.467546 1.118503,0.495013 1.465795,0.329527 0.236657,-0.112769 0.620634,-0.583472 1.02294,-1.253988 0.895795,-1.493003 0.857624,-1.937187 -0.220782,-2.569175 -2.735011,-1.602823 -2.834837,-5.163551 -0.19264,-6.871286 0.464519,-0.300233 0.891549,-0.619789 0.948958,-0.710124 0.223771,-0.352116 0.08574,-0.926646 -0.451948,-1.881148 C 25.578555,8.3963106 25.303359,8.2866569 23.921812,9.0101695 23.171798,9.40295 22.96157,9.4504179 21.987627,9.4468949 21.070773,9.4435783 20.782797,9.3844405 20.198258,9.0794351 18.886824,8.3951463 18.115254,7.1149681 18.115254,5.6233493 18.115254,4.8444197 17.85634,4.1806706 17.49901,4.04355 17.378287,3.9972247 16.681096,3.959322 15.949694,3.959322 c -1.787581,0 -1.898938,0.089911 -2.040941,1.6478865 -0.158365,1.7375038 -0.743035,2.7176738 -2.053469,3.442539 -0.63284,0.3500549 -0.85986,0.4000419 -1.819067,0.4005358 C 9.0649492,9.4507832 8.8429067,9.4007005 8.084968,9.0101695 6.7111718,8.3023155 6.4751162,8.3864559 5.5875843,9.9003445 4.6995631,11.415068 4.7424849,11.856083 5.8440678,12.535678 c 1.3909363,0.858105 2.0356045,1.96662 2.030482,3.491441 -0.00534,1.588358 -0.5237738,2.413324 -2.2776547,3.624324 -0.8573689,0.591986 -0.8570512,0.995426 0.00194,2.465227 0.8556577,1.464095 1.0850132,1.546118 2.444697,0.874285 0.8598832,-0.424876 1.1348934,-0.495242 1.9355529,-0.495242 2.194877,0 3.932778,1.733164 3.932778,3.922062 0,0.838552 0.188985,1.323535 0.59174,1.518552 0.159289,0.07713 0.85062,0.144365 1.536292,0.149411 1.116766,0.0082 1.284888,-0.02369 1.613375,-0.306244 z"
     id="path11"
     inkscape:connector-curvature="0" /><path
     style="fill:#ffffff;stroke-width:0.13559322"
     d="m 14.582417,20.718399 c -1.506801,-0.575753 -2.463005,-1.432837 -3.08948,-2.769227 -0.308951,-0.659049 -0.359933,-0.944688 -0.355156,-1.98985 0.0048,-1.059622 0.05683,-1.326372 0.394773,-2.025459 1.4995,-3.101991 5.457272,-3.80695 7.895066,-1.40627 1.020638,1.005099 1.458853,2.041185 1.451458,3.431729 -0.01073,2.017063 -0.964851,3.564469 -2.735547,4.436532 -0.762572,0.375566 -1.072593,0.449642 -1.991162,0.475769 -0.663432,0.01887 -1.276038,-0.04092 -1.569952,-0.153224 z m 2.950391,-2.115498 c 1.608854,-0.922701 2.0063,-3.100628 0.82693,-4.531409 -1.091149,-1.323753 -3.018254,-1.493436 -4.318741,-0.380268 -0.970048,0.830325 -1.304521,2.0239 -0.923515,3.295585 0.534327,1.783426 2.725283,2.585357 4.415326,1.616092 z"
     id="path13"
     inkscape:connector-curvature="0" /></svg>