<?xml version="1.0" encoding="UTF-8" standalone="no"?>
<svg
   xmlns:dc="http://purl.org/dc/elements/1.1/"
   xmlns:cc="http://creativecommons.org/ns#"
   xmlns:rdf="http://www.w3.org/1999/02/22-rdf-syntax-ns#"
   xmlns:svg="http://www.w3.org/2000/svg"
   xmlns="http://www.w3.org/2000/svg"
   xmlns:sodipodi="http://sodipodi.sourceforge.net/DTD/sodipodi-0.dtd"
   xmlns:inkscape="http://www.inkscape.org/namespaces/inkscape"
   id="i-trash"
   viewBox="0 0 32 32"
   fill="none"
   stroke="#000"
   stroke-linecap="round"
   stroke-linejoin="round"
   stroke-width="2"
   version="1.1"
   sodipodi:docname="trash.svg"
   inkscape:version="0.92.5 (2060ec1f9f, 2020-04-08)">
  <metadata
     id="metadata9">
    <rdf:RDF>
      <cc:Work
         rdf:about="">
        <dc:format>image/svg+xml</dc:format>
        <dc:type
           rdf:resource="http://purl.org/dc/dcmitype/StillImage" />
      </cc:Work>
    </rdf:RDF>
  </metadata>
  <defs
     id="defs7" />
  <sodipodi:namedview
     pagecolor="#ffffff"
     bordercolor="#666666"
     borderopacity="1"
     objecttolerance="10"
     gridtolerance="10"
     guidetolerance="10"
     inkscape:pageopacity="0"
     inkscape:pageshadow="2"
     inkscape:window-width="1920"
     inkscape:window-height="1013"
     id="namedview5"
     showgrid="false"
     inkscape:zoom="20.85965"
     inkscape:cx="16.525974"
     inkscape:cy="19.656412"
     inkscape:window-x="0"
     inkscape:window-y="360"
     inkscape:window-maximized="1"
     inkscape:current-layer="i-trash" />
  <path
     d="M28 6 L6 6 8 30 24 30 26 6 4 6 M16 12 L16 24 M21 12 L20 24 M11 12 L12 24 M12 6 L13 2 19 2 20 6"
     id="path2" />
  <path
     style="fill:#ffffff;stroke-width:0.27118644"
     d="M 7.4041839,30.699096 C 7.1133357,30.463581 7.072142,30.081722 6.1133177,18.732994 5.5685809,12.28544 5.1173562,6.9949153 5.1105961,6.9762712 5.1038361,6.9576271 4.8014489,6.9423729 4.4386249,6.9423729 c -1.2093829,0 -1.7676568,-0.839227 -1.0413984,-1.5654854 L 3.7300462,5.0440678 h 3.7767785 3.7767783 l 0.39608,-1.6483726 c 0.217844,-0.906605 0.508547,-1.7913507 0.646006,-1.9661017 l 0.249926,-0.3177291 h 3.42677 c 3.093755,0 3.447677,0.023102 3.641904,0.2377188 0.118323,0.1307453 0.409909,1.0154911 0.647971,1.9661017 l 0.432838,1.7283829 h 3.785988 3.785987 l 0.332819,0.3328197 c 0.422321,0.4223202 0.422321,0.8103454 0,1.2326657 -0.269788,0.2697875 -0.469169,0.3328197 -1.052768,0.3328197 h -0.719948 l -0.92471,11.2203391 c -0.508589,6.171186 -0.959381,11.458435 -1.001758,11.749443 -0.04238,0.291006 -0.189801,0.641853 -0.327608,0.779661 -0.238239,0.238238 -0.659787,0.250557 -8.574519,0.250557 -7.8036282,0 -8.3427419,-0.01521 -8.6243971,-0.243277 z M 23.193854,28.332203 c 0.04464,-0.391525 0.443591,-5.135593 0.886557,-10.542372 0.442965,-5.40678 0.832145,-10.0593225 0.864842,-10.3389835 l 0.05945,-0.5084746 H 15.992349 6.9799938 l 0.076509,0.5762712 c 0.04208,0.3169491 0.4438818,5.0915249 0.8928928,10.6101699 0.449011,5.518644 0.848204,10.232203 0.8870956,10.474576 l 0.070712,0.440678 H 16.009947 23.11269 Z M 18.742632,4.8067797 C 18.704757,4.6762712 18.605487,4.2949153 18.522034,3.959322 18.43858,3.6237288 18.338849,3.2409182 18.300411,3.108632 18.236537,2.8888171 18.036609,2.8713079 15.978008,2.9052422 l -2.252514,0.037131 -0.242701,0.9491525 c -0.133486,0.5220339 -0.244095,0.9949153 -0.245798,1.0508475 -0.0017,0.055932 1.251862,0.1016949 2.785702,0.1016949 2.591836,0 2.783935,-0.016759 2.719935,-0.2372884 z"
     id="path11"
     inkscape:connector-curvature="0" />
  <path
     style="fill:#ffffff;stroke-width:0.27118644"
     d="m 11.397226,24.643451 c -0.18305,-0.183051 -0.332945,-0.411864 -0.333099,-0.508474 -1.54e-4,-0.09661 -0.213587,-2.707858 -0.474296,-5.802774 -0.579986,-6.885087 -0.576565,-6.679754 -0.117308,-7.041006 0.454906,-0.357828 0.6284,-0.353242 1.072013,0.02834 l 0.359658,0.309365 0.526484,6.281005 c 0.380146,4.535167 0.487276,6.354267 0.385422,6.544583 -0.130238,0.243352 -0.638841,0.521784 -0.953124,0.521784 -0.07311,0 -0.282699,-0.149769 -0.46575,-0.33282 z"
     id="path13"
     inkscape:connector-curvature="0" />
  <path
     style="fill:#ffffff;stroke-width:0.27118644"
     d="m 15.571998,24.810386 c -0.552144,-0.266231 -0.59282,-0.794723 -0.549075,-7.134084 l 0.04148,-6.011833 0.380442,-0.32715 c 0.464983,-0.399847 0.634037,-0.406982 1.092797,-0.04612 l 0.357269,0.281028 v 6.420995 6.420996 l -0.357269,0.281027 c -0.398556,0.313504 -0.523391,0.32839 -0.965648,0.115143 z"
     id="path15"
     inkscape:connector-curvature="0" />
  <path
     style="fill:#ffffff;stroke-width:0.27118644"
     d="m 19.574544,24.830747 c -0.550878,-0.320945 -0.551588,-0.451043 -0.03683,-6.747315 0.272326,-3.330972 0.555939,-6.216195 0.630251,-6.411606 0.169774,-0.446437 0.684771,-0.696758 1.10487,-0.537037 0.736939,0.280184 0.731489,0.06534 0.173379,6.834956 -0.283887,3.44342 -0.573537,6.370464 -0.643666,6.504542 -0.07013,0.134078 -0.280313,0.301874 -0.467074,0.372882 -0.414497,0.157592 -0.464085,0.15652 -0.760927,-0.01642 z"
     id="path17"
     inkscape:connector-curvature="0" />
  <path
     style="fill:#ffffff;stroke-width:0.09587888"
     d="M 8.8489678,29.119996 C 8.7280777,28.966514 8.759974,29.313701 7.8062677,17.770333 7.4500992,13.459379 7.1012201,9.3174111 7.030981,8.5659603 6.9607418,7.8145096 6.9013984,7.1241816 6.8991068,7.0318982 l -0.00417,-0.1677881 h 9.1084942 c 9.079488,0 9.108466,3.054e-4 9.099636,0.095879 -0.08026,0.8686563 -0.484902,5.6867409 -1.022642,12.1766179 -0.840242,10.140724 -0.821144,9.934998 -0.928947,10.006625 -0.02915,0.01937 -3.248528,0.03555 -7.154162,0.03595 -5.624494,5.81e-4 -7.1109674,-0.01173 -7.1483516,-0.05919 z M 23.026956,28.85633 c 2.4e-4,-0.04614 0.02135,-0.267263 0.04697,-0.49138 0.0461,-0.403349 1.774341,-21.107118 1.774341,-21.2560151 0,-0.07086 -0.736947,-0.076283 -8.856813,-0.065179 l -8.8568116,0.012112 0.00959,0.1438183 c 0.00527,0.0791 0.053951,0.6292052 0.1081731,1.2224558 0.054222,0.5932506 0.4115294,4.864655 0.7940163,9.49201 0.6743667,8.158536 0.8518139,10.248493 0.9147969,10.774389 l 0.030142,0.251683 h 7.0176043 c 6.651323,0 7.017625,-0.0044 7.017998,-0.08389 z"
     id="path12"
     inkscape:connector-curvature="0" />
  <path
     style="fill:#ffffff;stroke-width:0.09587888"
     d="M 8.4769418,31.000343 C 7.5038362,30.958205 7.3521895,30.901441 7.1489695,30.503258 6.9735566,30.15956 6.8331918,28.650355 5.4586766,12.329207 5.2344041,9.6661705 5.0388646,7.3985232 5.0241442,7.2899902 L 4.9973799,7.0926571 4.4932857,7.05889 C 3.8549965,7.0161338 3.5601729,6.928452 3.3174916,6.7092039 2.8120613,6.2525783 2.857246,5.7324475 3.4528933,5.1505697 L 3.6856925,4.923152 7.4421774,4.9108725 11.198662,4.898593 11.497766,3.7001069 c 0.444627,-1.7815913 0.564336,-2.1256745 0.87145,-2.5048359 l 0.165028,-0.20374263 2.933081,0.002441 c 3.952827,0.003289 4.139286,0.0212417 4.341668,0.41801723 0.141518,0.2774503 0.41372,1.1821074 0.718248,2.3870852 l 0.277876,1.0995214 3.764041,0.012274 3.76404,0.012274 0.29622,0.3084818 c 0.297518,0.3098348 0.437917,0.5527127 0.437046,0.7560536 -8.29e-4,0.193718 -0.220561,0.5893176 -0.4241,0.7635396 -0.266344,0.2279804 -0.472932,0.2806831 -1.100241,0.2806831 -0.292011,0 -0.543006,0.019543 -0.557769,0.043428 -0.01476,0.023886 -0.242841,2.6611544 -0.506842,5.8605967 -1.47298,17.851118 -1.41839,17.279608 -1.689364,17.686418 -0.190767,0.286397 -0.372035,0.338844 -1.32278,0.382719 -1.013462,0.04677 -13.8930372,0.04272 -14.9884262,-0.0047 z M 24.281521,30.719181 c 0.414828,-0.109931 0.492556,-0.348586 0.641843,-1.970715 0.112627,-1.223777 1.281208,-15.228228 1.628096,-19.5113535 0.09289,-1.1469511 0.179598,-2.1527743 0.192682,-2.2351626 l 0.02379,-0.1497964 0.682092,-0.021415 c 0.749029,-0.023517 0.859183,-0.05638 1.119779,-0.3340689 0.372389,-0.3968178 0.33924,-0.6753867 -0.140253,-1.1786065 L 28.281093,5.1622599 h -3.802809 -3.80281 L 20.630321,5.0543961 C 20.605487,4.9950711 20.453954,4.4287864 20.293583,3.7959858 19.95636,2.4653629 19.651314,1.5115314 19.527012,1.3990394 19.377547,1.2637757 18.671106,1.2338793 15.592321,1.2325245 l -2.951904,-0.0013 -0.09882,0.1078637 C 12.29869,1.6042106 12.052184,2.3394412 11.661599,3.9637727 11.531628,4.5042899 11.404162,4.99507 11.378343,5.054395 l -0.04694,0.1078638 H 7.5501044 3.7688146 L 3.5262385,5.4187483 C 2.7968748,6.189943 3.3235789,6.8363057 4.6857364,6.8416649 4.9155806,6.8425709 5.1033802,6.86695 5.1473178,6.9015892 5.2328202,6.9689968 5.1461088,6.026354 6.1294665,17.578576 6.9812458,27.58505 7.083925,28.717252 7.235936,29.779164 c 0.091439,0.638768 0.1614231,0.822386 0.3398225,0.891589 0.2872794,0.111439 1.4461613,0.126853 8.8351615,0.117518 5.904926,-0.0075 7.697415,-0.0232 7.870601,-0.06909 z"
     id="path14"
     inkscape:connector-curvature="0" />
  <path
     style="fill:#ffffff;stroke-width:0.09587888"
     d="m 11.600889,24.95651 c -0.217424,-0.144016 -0.493989,-0.442646 -0.594973,-0.642443 -0.02665,-0.05273 -0.06332,-0.290033 -0.08148,-0.527334 -0.01816,-0.2373 -0.192396,-2.351429 -0.387183,-4.698065 -0.449776,-5.418533 -0.502275,-6.130072 -0.502275,-6.80754 0,-0.650602 0.04668,-0.796123 0.334382,-1.042385 0.526312,-0.450504 0.776763,-0.420762 1.459213,0.173284 l 0.187624,0.163319 0.349114,4.201865 c 0.453533,5.458618 0.544041,6.672643 0.577471,7.745855 0.02729,0.876047 0.02624,0.888882 -0.0858,1.050789 -0.126247,0.182435 -0.595097,0.456544 -0.859511,0.502505 -0.140323,0.02439 -0.211112,0.003 -0.396578,-0.11985 z m 0.54955,-0.164386 c 0.118232,-0.04029 0.297832,-0.14155 0.39911,-0.225033 l 0.184143,-0.151786 -0.02883,-1.009407 c -0.03158,-1.10582 -0.06674,-1.58074 -0.562687,-7.601082 L 11.80452,11.705994 11.602884,11.521903 c -0.277504,-0.253357 -0.466973,-0.366822 -0.612887,-0.367034 -0.164319,-2.38e-4 -0.55708,0.264319 -0.645098,0.434527 -0.152987,0.295844 -0.09465,1.389099 0.361799,6.78018 0.104923,1.239235 0.254843,3.045598 0.333157,4.014141 0.09938,1.229147 0.163999,1.802776 0.213943,1.899358 0.08174,0.158075 0.535976,0.582296 0.623489,0.582296 0.032,0 0.15492,-0.03296 0.273152,-0.07325 z"
     id="path16"
     inkscape:connector-curvature="0" />
  <path
     style="fill:#ffffff;stroke-width:0.09587888"
     d="m 15.619919,24.943156 c -0.460506,-0.217164 -0.570174,-0.445163 -0.642613,-1.335985 -0.08047,-0.989643 -0.09523,-2.792747 -0.06119,-7.476129 l 0.03265,-4.491689 0.167788,-0.173893 c 0.253418,-0.262639 0.708718,-0.550467 0.870753,-0.550467 0.176647,0 0.371931,0.09972 0.723233,0.369329 l 0.275652,0.211548 v 6.488529 6.488528 l -0.227712,0.190091 c -0.509676,0.425467 -0.720427,0.477322 -1.138562,0.280138 z m 0.728684,-0.257558 c 0.105494,-0.07251 0.249042,-0.178146 0.318996,-0.23475 l 0.127188,-0.102917 -0.01216,-6.368254 -0.01216,-6.368254 -0.302386,-0.228367 c -0.193045,-0.145789 -0.350783,-0.228366 -0.436226,-0.228366 -0.138962,0 -0.399629,0.156378 -0.68736,0.412358 l -0.167135,0.148692 -0.03335,5.100678 c -0.04663,7.131393 -0.01164,7.668727 0.515048,7.907849 0.279094,0.126713 0.464019,0.116343 0.68955,-0.03867 z"
     id="path18"
     inkscape:connector-curvature="0" />
  <path
     style="fill:#ffffff;stroke-width:0.09587888"
     d="m 19.515474,24.916316 c -0.442866,-0.280857 -0.511081,-0.539267 -0.460281,-1.743616 0.09551,-2.264243 0.848811,-10.928308 0.99835,-11.482443 0.112891,-0.418334 0.62216,-0.76689 1.037345,-0.709983 0.426027,0.05839 0.695618,0.264217 0.814369,0.621741 0.06836,0.20582 0.07538,0.359932 0.04714,1.035797 -0.09623,2.303397 -0.894193,11.375789 -1.040742,11.832588 -0.05628,0.175431 -0.25246,0.342863 -0.571066,0.487385 -0.309941,0.140593 -0.557668,0.128142 -0.825117,-0.04147 z m 0.695996,-0.146962 c 0.467326,-0.174849 0.491029,-0.224555 0.605753,-1.270257 0.183844,-1.675735 0.446556,-4.625748 0.776998,-8.724979 0.134909,-1.673579 0.148953,-3.114115 0.0321,-3.292902 -0.178719,-0.273452 -0.758446,-0.354715 -1.040524,-0.145856 -0.263177,0.194865 -0.320317,0.346524 -0.40461,1.073904 -0.125186,1.08025 -0.298161,2.9364 -0.5063,5.432979 -0.336577,4.037166 -0.356655,4.341913 -0.360177,5.466883 -0.0039,1.251401 -0.0011,1.262826 0.361564,1.447716 0.255489,0.130264 0.222531,0.129493 0.535192,0.01251 z"
     id="path20"
     inkscape:connector-curvature="0" />
  <path
     style="fill:#ffffff;stroke-width:0.09587888"
     d="m 13.894099,5.1197301 c -0.342767,-0.016907 -0.650179,-0.047886 -0.683137,-0.068843 -0.03296,-0.020957 -0.05992,-0.092703 -0.05992,-0.1594364 0,-0.1294896 0.403224,-1.7946427 0.475233,-1.962523 0.04218,-0.098344 0.07585,-0.100541 2.001035,-0.1305671 1.968253,-0.030698 2.559623,-0.00343 2.686947,0.1238938 0.08004,0.08004 0.55178,1.834116 0.53137,1.9757966 -0.03228,0.2240949 -0.164099,0.2380737 -2.314854,0.2454827 -1.107401,0.00381 -2.293902,-0.0069 -2.636669,-0.023803 z m 4.7015,-0.2564851 c 0.04328,-0.043332 -0.385538,-1.7082065 -0.458894,-1.7816661 -0.06876,-0.068852 -1.779778,-0.091012 -3.23297,-0.041872 l -1.099699,0.037187 -0.205334,0.8149706 c -0.112934,0.4482337 -0.205927,0.8517372 -0.206651,0.8966742 -0.0011,0.067276 0.05582,0.084923 0.322275,0.099935 0.584916,0.032954 4.845156,0.010935 4.881273,-0.025229 z"
     id="path22"
     inkscape:connector-curvature="0" />
</svg>
